HIERARCHY
ROOT SpineBase
{
  OFFSET 0.000000 0.000000 0.000000
  CHANNELS 6 Xposition Yposition Zposition Zrotation Xrotation Yrotation
  JOINT SpineMid
  {
    OFFSET -0.000000 32.428481 0.000000
    CHANNELS 3 Zrotation Xrotation Yrotation
    JOINT SpineShoulder
    {
      OFFSET -0.233637 24.180725 -0.813518
      CHANNELS 3 Zrotation Xrotation Yrotation
      JOINT Neck
      {
        OFFSET -0.172787 8.029494 -0.605756
        CHANNELS 3 Zrotation Xrotation Yrotation
        JOINT Head
        {
          OFFSET 0.667361 11.631587 3.006917
          CHANNELS 3 Zrotation Xrotation Yrotation
          End Site
          {
            OFFSET 0 0 0
          }
        }
      }
      JOINT ShoulderLeft
      {
        OFFSET -12.909130 -6.287554 -7.748430
        CHANNELS 3 Zrotation Xrotation Yrotation
        JOINT ElbowLeft
        {
          OFFSET -6.263125 -23.537381 4.366953
          CHANNELS 3 Zrotation Xrotation Yrotation
          JOINT WristLeft
          {
            OFFSET 3.438980 -18.106950 9.894925
            CHANNELS 3 Zrotation Xrotation Yrotation
            JOINT HandLeft
            {
              OFFSET -1.878773 -7.057556 -9.946341
              CHANNELS 3 Zrotation Xrotation Yrotation
              JOINT HandTipLeft
              {
                OFFSET -0.304483 -0.631772 -0.750038
                CHANNELS 3 Zrotation Xrotation Yrotation
                End Site
                {
                  OFFSET 0 0 0
                }
              }
              JOINT ThumbLeft
              {
                OFFSET -0.818392 -0.804447 -1.075139
                CHANNELS 3 Zrotation Xrotation Yrotation
                End Site
                {
                  OFFSET 0 0 0
                }
              }
            }
          }
        }
      }
      JOINT ShoulderRight
      {
        OFFSET 12.961500 -6.085072 -2.509398
        CHANNELS 3 Zrotation Xrotation Yrotation
        JOINT ElbowRight
        {
          OFFSET 5.263111 -24.087225 4.965866
          CHANNELS 3 Zrotation Xrotation Yrotation
          JOINT WristRight
          {
            OFFSET -27.881748 -8.762055 -7.822002
            CHANNELS 3 Zrotation Xrotation Yrotation
            JOINT HandRight
            {
              OFFSET -19.786015 -13.675273 -2.169168
              CHANNELS 3 Zrotation Xrotation Yrotation
              JOINT HandTipRight
              {
                OFFSET -0.711503 0.844140 -1.275421
                CHANNELS 3 Zrotation Xrotation Yrotation
                End Site
                {
                  OFFSET 0 0 0
                }
              }
              JOINT ThumbRight
              {
                OFFSET -1.686298 4.878496 -6.651062
                CHANNELS 3 Zrotation Xrotation Yrotation
                End Site
                {
                  OFFSET 0 0 0
                }
              }
            }
          }
        }
      }
    }
  }
  JOINT HipLeft
  {
    OFFSET -7.310360 1.831587 -4.165105
    CHANNELS 3 Zrotation Xrotation Yrotation
    JOINT KneeLeft
    {
      OFFSET 1.780952 -26.313156 -4.205118
      CHANNELS 3 Zrotation Xrotation Yrotation
      JOINT AnkleLeft
      {
        OFFSET 0.402112 -28.824133 -4.464121
        CHANNELS 3 Zrotation Xrotation Yrotation
        JOINT FootLeft
        {
          OFFSET 0.764515 -1.243289 -10.372942
          CHANNELS 3 Zrotation Xrotation Yrotation
          End Site
          {
            OFFSET 0 0 0
          }
        }
      }
    }
  }
  JOINT HipRight
  {
    OFFSET 5.387790 1.329103 -2.343536
    CHANNELS 3 Zrotation Xrotation Yrotation
    JOINT KneeRight
    {
      OFFSET 3.885123 -29.993970 -1.649352
      CHANNELS 3 Zrotation Xrotation Yrotation
      JOINT AnkleRight
      {
        OFFSET 3.223950 -27.276903 -0.275633
        CHANNELS 3 Zrotation Xrotation Yrotation
        JOINT FootRight
        {
          OFFSET 0.587763 -1.299198 -10.357614
          CHANNELS 3 Zrotation Xrotation Yrotation
          End Site
          {
            OFFSET 0 0 0
          }
        }
      }
    }
  }
}
MOTION
Frames: 12
Frame Time: 0.033333
71.084174 60.366303 242.482002 0.000000 0.000000 -8.163477 -0.000000 0.000000 8.163477 -0.000000 0.000000 0.000000 -0.000000 0.000000 0.000000 0.000000 0.000000 0.000000 -0.000000 0.000000 0.000000 -0.000000 0.000000 0.000000 -0.000000 0.000000 0.000000 -0.000000 0.000000 0.000000 0.000000 0.000000 0.000000 0.000000 0.000000 0.000000 -0.000000 0.000000 0.000000 -0.000000 0.000000 0.000000 -0.000000 0.000000 0.000000 -0.000000 0.000000 0.000000 0.000000 0.000000 0.000000 0.000000 0.000000 0.000000 -0.000000 0.000000 8.163477 -0.000000 0.000000 0.000000 -0.000000 0.000000 0.000000 0.000000 0.000000 0.000000 -0.000000 0.000000 8.163477 -0.000000 0.000000 0.000000 -0.000000 0.000000 0.000000 0.000000 0.000000 0.000000
71.093520 60.364485 242.530608 0.006537 -0.027603 -7.822278 -0.010233 0.026456 7.822282 -0.000000 0.000000 0.000000 -0.000000 0.000000 0.000000 0.000000 0.000000 0.000000 -0.000000 0.000000 0.000000 -0.000000 0.000000 0.000000 2.090530 -9.759990 -0.186966 -3.260630 20.077656 -2.647162 0.000000 0.000000 0.000000 0.000000 0.000000 0.000000 1.439399 -0.976694 0.095191 -1.437984 0.978776 -0.070638 -0.000000 0.000000 0.000000 -0.000000 0.000000 0.000000 0.000000 0.000000 0.000000 0.000000 0.000000 0.000000 -0.010233 0.026456 7.822282 -0.000000 0.000000 0.000000 -0.000000 0.000000 0.000000 0.000000 0.000000 0.000000 -0.010233 0.026456 7.822282 -0.000000 0.000000 0.000000 -0.000000 0.000000 0.000000 0.000000 0.000000 0.000000
71.109027 60.362079 242.581249 0.017334 -0.056067 -7.536240 -0.024538 0.053309 7.536260 -0.000000 0.000000 0.000000 -0.000000 0.000000 0.000000 0.000000 0.000000 0.000000 -0.319060 -1.035139 0.212857 0.322956 1.033930 -0.218654 4.748234 -21.753588 0.109774 -7.601266 41.080900 -3.380455 0.000000 0.000000 0.000000 0.000000 0.000000 0.000000 2.734599 -1.880924 0.196066 -2.729631 1.888130 -0.106179 -0.000000 0.000000 0.000000 -0.000000 0.000000 0.000000 0.000000 0.000000 0.000000 0.000000 0.000000 0.000000 -0.024538 0.053309 7.536260 -0.000000 0.000000 0.000000 -0.000000 0.000000 0.000000 0.000000 0.000000 0.000000 -0.024538 0.053309 7.536260 -0.000000 0.000000 0.000000 -0.000000 0.000000 0.000000 0.000000 0.000000 0.000000
71.130694 60.359083 242.633925 0.032391 -0.085398 -7.305765 -0.042988 0.080586 7.305819 -0.000000 0.000000 0.000000 -0.000000 0.000000 0.000000 0.000000 0.000000 0.000000 -0.438973 -1.411834 0.287892 1.045659 0.907130 -0.077533 7.311110 -34.442267 0.913903 -15.730306 61.329104 0.350585 0.000000 0.000000 0.000000 0.000000 0.000000 0.000000 3.847892 -2.690031 0.292517 -3.838392 2.703579 -0.111527 -0.000000 0.000000 0.000000 -0.000000 0.000000 0.000000 0.000000 0.000000 0.000000 0.000000 0.000000 0.000000 -0.042988 0.080586 7.305819 -0.000000 0.000000 0.000000 -0.000000 0.000000 0.000000 0.000000 0.000000 0.000000 -0.042988 0.080586 7.305819 -0.000000 0.000000 0.000000 -0.000000 0.000000 0.000000 0.000000 0.000000 0.000000
71.158520 60.355499 242.688635 0.051710 -0.115600 -7.131154 -0.065661 0.108286 7.131268 -0.000000 0.000000 0.000000 -0.000000 0.000000 0.000000 0.000000 0.000000 0.000000 -0.533245 -1.695237 0.342932 1.272888 1.101963 -0.088466 11.176897 -46.742838 3.098226 -41.512098 77.780259 22.468313 0.000000 0.000000 0.000000 0.000000 0.000000 0.000000 4.745026 -3.383459 0.373856 -4.731221 3.402757 -0.093019 -0.000000 0.000000 0.000000 -0.000000 0.000000 0.000000 0.000000 0.000000 0.000000 0.000000 0.000000 0.000000 -0.868130 0.704879 7.299098 0.720224 -0.693646 -0.157775 -0.000000 0.000000 0.000000 0.000000 0.000000 0.000000 -0.065661 0.108286 7.131268 -0.000000 0.000000 0.000000 -0.000000 0.000000 0.000000 0.000000 0.000000 0.000000
71.192507 60.351325 242.745381 0.075294 -0.146677 -7.012616 -0.092638 0.136387 7.012823 -0.000000 0.000000 0.000000 -0.000000 0.000000 0.000000 0.000000 0.000000 0.000000 -0.602285 -1.885730 0.378481 1.439334 1.244440 -0.089556 15.823351 -56.624495 6.544251 -124.092556 80.513996 102.276469 0.000000 0.000000 0.000000 0.000000 0.000000 0.000000 5.397403 -3.943792 0.429980 -5.380606 3.966709 -0.057545 -0.000000 0.000000 0.000000 -0.000000 0.000000 0.000000 0.000000 0.000000 0.000000 0.000000 0.000000 0.000000 -1.042719 0.824599 7.212022 0.856251 -0.801933 -0.185239 -0.000000 0.000000 0.000000 0.000000 0.000000 0.000000 -0.092638 0.136387 7.012823 -0.000000 0.000000 0.000000 -0.000000 0.000000 0.000000 0.000000 0.000000 0.000000
71.246058 60.343002 242.805660 0.111591 -0.180086 -6.953503 -0.132573 0.165251 6.953870 -0.000000 0.000000 0.000000 -0.000000 0.000000 0.000000 0.000000 0.000000 0.000000 -0.618333 -1.973160 0.397881 1.595151 1.304221 -0.044957 21.832617 -64.655873 11.955577 -143.090457 71.583969 122.687574 0.000000 0.000000 0.000000 0.000000 0.000000 0.000000 5.671223 -4.400392 0.418397 -5.655847 4.420163 0.018116 -0.000000 0.000000 0.000000 -0.000000 0.000000 0.000000 0.000000 0.000000 0.000000 0.000000 0.000000 0.000000 -1.255055 0.918076 7.187613 1.019594 -0.887183 -0.215237 -0.000000 0.000000 0.000000 0.000000 0.000000 0.000000 -0.132573 0.165251 6.953870 -0.000000 0.000000 0.000000 -0.000000 0.000000 0.000000 0.000000 0.000000 0.000000
71.295420 60.339439 242.863105 0.146482 -0.209043 -6.924656 -0.170617 0.189857 6.925206 -0.000000 0.000000 0.000000 -0.000000 0.000000 0.000000 0.000000 0.000000 0.000000 -0.629284 -1.956970 0.391470 1.609120 1.352658 -0.025261 27.950541 -69.478453 17.495647 -158.956796 62.000911 136.068387 0.000000 0.000000 0.000000 0.000000 0.000000 0.000000 5.666719 -4.577432 0.387779 -5.653860 4.593323 0.065823 -0.000000 0.000000 0.000000 -0.000000 0.000000 0.000000 0.000000 0.000000 0.000000 0.000000 0.000000 0.000000 -1.301791 0.952683 7.161576 1.027377 -0.897717 -0.217042 -0.000000 0.000000 0.000000 0.000000 0.000000 0.000000 -0.170617 0.189857 6.925206 -0.000000 0.000000 0.000000 -0.000000 0.000000 0.000000 0.000000 0.000000 0.000000
71.342643 60.335544 242.925880 0.179650 -0.249172 -6.999237 -0.208676 0.225422 7.000039 -0.000000 0.000000 0.000000 -0.623271 -0.607950 0.192904 0.000000 0.000000 0.000000 -0.657755 -1.830002 0.352864 1.549213 1.354568 -0.005897 43.079995 -75.536525 32.263415 -164.769869 62.979156 140.574466 0.000000 0.000000 0.000000 0.000000 0.000000 0.000000 5.446343 -4.587519 0.332864 -5.437182 4.598381 0.103920 -0.000000 0.000000 0.000000 -0.000000 0.000000 0.000000 0.000000 0.000000 0.000000 0.000000 0.000000 0.000000 -1.463546 1.025433 7.261130 1.143851 -0.951960 -0.237890 -0.000000 0.000000 0.000000 0.000000 0.000000 0.000000 -0.208676 0.225422 7.000039 -0.000000 0.000000 0.000000 -0.000000 0.000000 0.000000 0.000000 0.000000 0.000000
71.381974 60.330549 242.989428 0.207580 -0.282597 -7.153041 -0.241156 0.254548 7.154089 -0.000000 0.000000 0.000000 -0.698754 -0.745740 0.219171 0.000000 0.000000 0.000000 -0.664065 -1.719431 0.322992 1.544312 1.316817 0.034645 28.771537 -69.875763 18.790473 -154.977392 63.939852 133.922577 0.000000 0.000000 0.000000 0.000000 0.000000 0.000000 4.991412 -4.313738 0.270120 -4.985244 4.320869 0.106172 -0.000000 0.000000 0.000000 0.594369 -0.435521 0.527873 0.000000 0.000000 0.000000 0.000000 0.000000 0.000000 -1.631678 1.067661 7.440594 1.273706 -0.986027 -0.259499 -0.000000 0.000000 0.000000 0.000000 0.000000 0.000000 -0.241156 0.254548 7.154089 -0.000000 0.000000 0.000000 -0.000000 0.000000 0.000000 0.000000 0.000000 0.000000
71.416521 60.330455 243.050531 0.229900 -0.313822 -7.379217 -0.268305 0.281692 7.380506 -0.000000 0.000000 0.000000 -0.799276 -0.925909 0.253721 0.000000 0.000000 0.000000 -0.696642 -1.572438 0.278469 1.504416 1.237759 0.057524 21.629727 -64.290068 11.809422 -143.000608 70.277870 123.011370 0.000000 0.000000 0.000000 0.000000 0.000000 0.000000 4.731898 -4.134789 0.239210 -4.726974 4.140420 0.102667 -0.000000 0.000000 0.000000 0.546750 -0.293415 0.575639 0.000000 0.000000 0.000000 0.000000 0.000000 0.000000 -1.857212 1.098206 7.703148 1.465355 -1.021702 -0.290441 -0.000000 0.000000 0.000000 0.000000 0.000000 0.000000 -1.018536 0.590633 7.477175 0.703661 -0.403890 -0.088477 -0.000000 0.000000 0.000000 0.000000 0.000000 0.000000
71.438112 60.324603 243.114918 0.237033 -0.336685 -7.603771 -0.279504 0.302357 7.605205 -0.000000 0.000000 0.000000 -0.915440 -1.019072 0.287516 0.000000 0.000000 0.000000 -0.728123 -1.443818 0.238980 0.734370 1.440651 -0.257387 17.217509 -56.874793 7.447188 -137.157641 73.662361 116.290341 0.000000 0.000000 0.000000 0.000000 0.000000 0.000000 4.633464 -4.028298 0.234475 -4.628446 4.034066 0.091658 -0.000000 0.000000 0.000000 0.543360 -0.267729 0.592120 0.000000 0.000000 0.000000 0.000000 0.000000 0.000000 -2.087798 1.148652 7.969443 2.150611 -2.013293 -0.400128 -0.483238 0.921615 0.091477 0.000000 0.000000 0.000000 -0.996322 0.694034 7.710287 0.657806 -0.484252 -0.096069 -0.000000 0.000000 0.000000 0.000000 0.000000 0.000000
